<svg width="684.14mm" height="1048.5mm" viewBox="0 0 684.14 1048.5" xmlns="http://www.w3.org/2000/svg"><g transform="translate(200.33 378.82)"><rect x="-200.33" y="-378.82" width="684.14" height="1048.5" fill="#efa"/><path d="m269.18 165.42h47.952l-71.966 511.16-48.302 39.48z" fill="#450"/><path d="m219.62 64.018 34.389-1e-6 -51.61 150.46-34.64 11.621z" fill="#668000"/><path d="m218.84 165.28 98.285 0.1317-49.898 48.53-224.86 15.497z" fill="#8a0"/><path d="m162.25-88.711 34.389-1e-6 -40.919 152.6-45.063 13.358z" fill="#8a0"/><path d="m155.72 63.886 98.285 0.1317-49.898 48.53h-219.75z" fill="#aad400"/><path d="m72.917-78.401 75.094 37.017-112.91 711.87h-491.65z" fill="#cf0"/><path d="m130.27 70.917 73.935 40.881-74.858 557.89h-329.68z" fill="#fc0"/><path d="m196.04 173.41 71.193 40.532-62.11 455.74h-273.53z" fill="#aad400"/><path d="m98.356-88.843 98.285 0.1317-49.898 48.53-73.825-38.22z" fill="#cf0"/></g></svg>
