<svg id="Layer_1" enable-background="new 0 0 511.333 511.333" height="512" viewBox="0 0 511.333 511.333" width="512" xmlns="http://www.w3.org/2000/svg"><path d="m7.329 271.599 224 192c13.6 11.655 34.665 1.963 34.667-15.942l.009-96.342h224.328c11.598 0 21-9.402 21-21v-149.32c0-11.598-9.402-21-21-21h-224.328l-.009-96.342c-.002-18.016-21.188-27.495-34.667-15.942l-224 192c-9.771 8.374-9.773 23.511 0 31.888z" fill="#fff3e4"/><path d="m266.333 351.315v-191.33h224c11.6 0 21 9.41 21 21v149.33c0 11.6-9.4 21-21 21z" fill="#ffebd2"/></svg>